<?xml version="1.0" encoding="UTF-8"?>
<svg id="Layer_1" xmlns="http://www.w3.org/2000/svg" version="1.1" viewBox="0 0 1024 1024">
  <!-- Generator: Adobe Illustrator 30.2.1, SVG Export Plug-In . SVG Version: 2.1.1 Build 1)  -->
  <defs>
    <style>
      .st0 {
        fill: none;
      }

      .st1 {
        fill: #f4f5eb;
      }

      .st2 {
        fill: #313a0f;
      }
    </style>
  </defs>
  <g>
    <path class="st2" d="M301.95,197.91c138.7-9.11,241.77,129.97,194.16,259.63-24.04,67.59-86.95,118.1-158.38,126.37-109.68,14.48-210.99-69.63-217.48-179.26-8.2-105.7,75.15-201.12,181.49-206.73h.21Z"/>
    <path class="st1" d="M421.31,269.19c3.65-4.66,14.96,7.06,18.18,9.7,16,14.77,28.49,32.43,36.55,51.76,1.26,3.25,3.41,8.54,1.61,11.4-3.53,4.45-14.99-12.12-25.25-12.12-13.05,0-1.37,22.3,2.23,27.08,21.65,25.57,27.68,61.94,18.15,93.76-10.15,33.75-34.83,60.4-65.28,78.56-4.1,2.29-5.77-3.55-3-14.46,1.81-5.9,1.07.03,1.59-6.15,1.21-14.36-1.54-24.09-4.1-38.46-1.69-12.62,5.79-13.76,15.43-18.43,14.05-6.77,25.63-18.25,32.15-32.63,12.85-27.97,2.86-59.93-23.13-76.17-30.25-22.09-96.99-12.49-112.57-44.36-7.45-18.72,14.27-32.33,31.7-34.61,21.79-2.84,40.49,7.69,53.37,24.67,4.04,4.53,8.07,11.52,14.46,12.45,8.44-.25,8.44-13.61,7.82-19.89-.39-3.62-1.37-10.06.04-12.02l.05-.08Z"/>
    <path class="st1" d="M305.29,488.58c1.26,10.11,12.32,16.03,23.09,11.15,5.75-2.48,11.04-7.33,17.06-10.57,15.37-8.72,31.57-4.59,33.68,15.08,3.67,43.05-43.55,68.86-81.89,62.41-42.81-5.88-71.53-38.89-70.13-82.2.94-27.62,19.75-61.91,51.51-46.01,9.97,5.53,21.92,24.62,22.55,34.75"/>
    <path class="st1" d="M244.62,357.38c27.68-1.02,41.92,23.09,59.94,39.84,6.9,6.63,14.12,12.82,21.25,19.22,5.97,5.66,13.98,11.99,15.56,20.14.77,4.27-1.24,8.15-5.31,9.53-3.81,1.32-8.25.58-11.97-.86-10.44-3.79-16.07-16.4-22.93-24.92-7.44-9.87-17.8-18.78-28.83-23.85-8.25-3.58-14.89-3.24-21.54-2.17-12.16,1.61-22.03,9.45-28.39,20.03-6.64,10.53-10.86,22.73-12.86,34.75-1.46,8.66-1.99,17.36-1.57,25.71.18,6.23,1.65,13.19-.24,19.13-1.86,6.36-8.38,8.25-13.66,4.66-11.44-7.97-23.15-35.06-27.81-48.74-2.27-6.9-2.18-14.77,4.85-18.78,3.38-2.16,7.63-3.62,11.26-5.51,28.44-14.3,21.81-66.6,62.04-68.18h.2Z"/>
    <path class="st1" d="M328.1,214.45c10.36.56,17.9,3.53,21.3,4.91,8.84,3.59,23.08,11.49,3.08,11.96-20.95.68-41.75,11.85-52.48,29.98-11.21,18.67-13.88,43.11-4.56,62.97,11.97,25.97,37.95,37.84,64.72,43.17,20.59,4.89,45.14,5.66,61.6,17.38,12.91,9.65,13.58,26.87,4.12,39.57-6.12,8.76-14.88,15.4-24.65,19.5-5.79,2.5-12.14,2.26-17.23-1.96-2.29-1.78-4.32-4.03-6.23-6.25-4.61-5.5-9.09-10.3-13.7-14.72-8.04-7.74-17.05-14.91-26-22.18-37.77-28.63-53.79-69.5-53.85-118.26-.73-32.65,6.88-52.43,28.13-59.85,2.23-2.03,12-6.43,15.73-6.23Z"/>
    <path class="st1" d="M266.07,226.25c1.38,1.88-3.6,6.99-4.9,8.83-23.99,28.64-39.92,63.35-51.61,98.53-5.26,15.84-12.45,36.19-25.1,47.94-10.16,9.39-23.52,4.08-28.4-7.89-5.4-14.64-.87-31.67,3.62-46.32,15.37-45.03,50.98-81.4,95.55-98.68,2.93-1.17,8.96-3.63,10.8-2.44l.04.04Z"/>
    <path class="st1" d="M245.83,280.66c3.96-1.14,4.76,5.36,5.52,10.17.55,4.71,1.19,9.45,2.13,14.1.99,5.02,2.22,9.99,3.59,14.92,1.35,4.83,3,10.07,2.38,13.58-1.55,7.73-11.56,5.23-17.4,5.42-3.23-.09-6.58.15-9.69.13-12.75.33-11.71-6.74-8.17-15.84,3.6-8.45,14.69-39.07,21.56-42.44l.1-.04Z"/>
    <path id="_x3C_Slice_x3E_" class="st0" d="M321.99,480.95c-1.8-1.19-1.71-6.56-1.7-10.47.01-6.41-.03-13.6.02-20.06-.04-6.36,1-8.73,7.09-8.84,6.34-.16,14.15-.2,20.31.03,5.01.15,6.37,2.32,6.48,6.54.05,9.02.45,20.77-.22,29.68-.49,4.02-3.77,4.45-7.55,4.57-2.3.09-5.16.06-8.14.07-3.23,0-6.49.02-9.13-.03-3.43-.07-5.79-.32-7.08-1.43l-.08-.07Z"/>
    <path class="st1" d="M356.09,494.65c-2.18.65-3.64,2.56-4.83,4.48-3.14,5.19-5.97,14.11-8.8,15.56-5.84,2.45-7.51-21.31-8.69-26.02-1.88-12.31-6.14-22.92-11.86-33.83-2-4.65-22.78-39.79-18.72-43.12,3.11-1.61,22.26,23.84,27.45,22.89,3.01-.09-6.28-13.43-3.47-13.77,4.6.1,22.14,20.62,25.75,24.6,5.86,7.49,12.44,14.23,17.34,22.17,3.4,4.91,11.1,36.18,6.45,33.9s-13.76-8.3-20.52-6.91l-.11.03Z"/>
  </g>
  <path class="st1" d="M340.41,498.83c0,5.46-2.52,9.89-5.63,9.89s-16.18-4.75-10.86-6.02c8.72-2.08,9.95-9.99,10.22-15.78.07-1.43,6.27,6.45,6.27,11.91Z"/>
</svg>