<?xml version="1.0" encoding="utf-8" ?><svg xmlns="http://www.w3.org/2000/svg" xmlns:xlink="http://www.w3.org/1999/xlink" width="420" height="420" viewBox="302 302 420 420"><path fill="#313A0F" d="M500.122 318.395C607.248 311.821 699.34 393.511 705.592 500.656C711.844 607.802 629.878 699.648 522.714 705.578C416.005 711.482 324.633 629.939 318.408 523.248C312.183 416.558 393.45 324.941 500.122 318.395Z"/><path fill="#F4F5EB" d="M610.263 369.905C612.993 371.606 619.978 377.399 622.593 379.603C649.21 402.135 667.785 432.706 675.521 466.711C673.929 465.27 672.294 463.879 670.616 462.54C663.436 456.833 652.756 451.539 643.596 452.89C630.607 454.806 639.984 463.681 644.208 468.496C646.651 471.281 649.599 475.083 651.548 477.978C657.317 486.643 661.829 496.08 664.952 506.01C674.557 536.362 670.814 571.947 656.08 600.082C641.752 627.247 619.78 649.621 592.878 664.437C587.459 667.394 581.881 670.308 575.984 672.144C591.689 648.652 597.142 634.766 595.406 605.884C594.237 597.384 592.458 592.4 589.876 584.214C609.584 578.97 625.446 570.611 637.04 553.038C647.612 537.055 651.419 517.534 647.629 498.75C645.097 486.209 638.884 474.707 629.786 465.712C605.632 442.096 575.147 443.75 544.498 435.003C537.187 432.878 528.739 430.561 522.455 426.105C488.304 401.887 523.512 368.66 553.996 373.023C574.239 375.92 584.507 386.564 595.898 402.738C598.947 407.067 604.647 419.224 610.588 418.168C612.237 417.208 613.158 416.202 613.837 414.351C619.506 398.913 615.429 384.198 610.263 369.905Z"/><path fill="#F4F5EB" d="M462.709 562.622C464.479 562.492 466.316 562.36 468.089 562.382C476.417 562.409 484.379 565.808 490.16 571.803C499.575 581.553 495.969 587.548 495.41 598.821C494.493 617.332 519.314 624.749 530.41 610.853C536.263 603.523 535.656 596.871 534.863 588.388C546.926 590.064 555.163 589.716 567.256 589.423C577.962 618.64 572.245 647.782 548.062 668.038C539.186 675.018 528.781 679.792 517.702 681.968C494.654 686.72 470.664 682.08 451.05 669.078C423.195 650.318 409.408 613.333 429.742 583.921C437.422 572.68 449.305 565.003 462.709 562.622Z"/><path fill="#F4F5EB" d="M435.797 474.715C440.567 474.558 445.332 475.116 449.936 476.37C467.064 481.105 475.706 491.657 487.265 503.837C491.566 508.324 496.037 512.643 500.67 516.786C507.683 523.06 514.845 529.166 522.149 535.098C535.659 545.96 548.887 556.148 557.598 571.651C544.311 572.445 526.177 568.924 514.052 562.889C511.68 561.709 505.833 556.471 503.16 554.695C489.071 545.335 471.452 541.932 454.931 544.983C435.977 548.483 422.564 558.339 411.745 573.766C395.986 598.014 395.884 622.302 408.058 648.034C374.185 622.795 355.006 587.682 344.476 547.51C348.86 548.741 353.533 549.695 358.096 549.244C390.824 546.012 390.938 507.353 408.291 486.976C415.623 478.367 425.018 475.534 435.797 474.715Z"/><path fill="#F4F5EB" d="M514.331 336.209C533.666 334.593 552.664 342.92 567.257 355.156C565.03 354.527 562.771 354.017 560.49 353.63C543.745 350.846 524.707 354.877 510.937 364.9C496.048 375.738 487.883 391.434 485.183 409.457C483.035 423.798 485.5 438.078 492.936 450.575C523.812 502.465 601.322 480.561 622.867 510.897C626.962 516.661 628.106 522.902 627.063 529.829C625.881 534.06 624.066 538.087 621.678 541.774C612.688 555.796 598.056 563.804 582.145 567.39C563.44 541.115 549.208 531.636 524.942 511.978C493.263 486.161 469.98 450.646 466.667 409.19C463.82 373.56 473.023 339.363 514.331 336.209Z"/><path fill="#F4F5EB" d="M462.516 345.496L463.107 345.556C462.772 346.816 462.694 346.487 461.69 347.555C436.062 374.814 419.002 409.365 406.928 444.487C401.234 461.049 384.352 524.762 356.827 500.653C355.002 498.462 353.559 495.98 352.559 493.31C346.265 476.519 355.103 447.376 362.426 431.857C378.728 397.311 405.274 370.067 440.25 354.258C447.778 350.855 454.827 348.361 462.516 345.496Z"/><path fill="#F4F5EB" d="M443.787 394.343C444.248 396.157 444.271 400.554 444.249 402.536C444.018 422.586 449.757 440.385 455.556 459.4C445.197 457.041 437.351 455.844 426.88 457.122C423.384 457.515 419.065 458.594 415.547 459.372C421.45 440.073 433.179 410.849 443.787 394.343Z"/></svg>